# xmcd
#
# Track frame offsets:
#	150
#	18690
#	32501
#	45414
#	61201
#	72322
#	82972
#	101637
#	113599
#	126076
#	140108
#	151180
#	173997
#	186461
#	198870
#
# Disc length: 2826
#
# Revision: 2
# Processed by: cddbd v1.5.1PL0 Copyright (c) Steve Scherf et al.
# Submitted via: CDex 1.40Release
# Normalized: r0:DSETVAR1,TDELIM( - ),TSWAP
#
DISCID=c90b080f
DTITLE=Various Artist - Too Much Blues
DYEAR=1996
DGENRE=Blues
TTITLE0=Vargas Blues Band - Rock Me Babe
TTITLE1=Koko Taylor - Wang Dang Doodle
TTITLE2=Etta James - Spoonful
TTITLE3=Mick Taylor and Tonky Blues Band - Look Watcha Done
TTITLE4=Howlin Wolf - Little Red Rooster
TTITLE5=Canned Heat - Dimpled
TTITLE6=Robert Cray - The Score
TTITLE7=Yardbirds - I'm A Man
TTITLE8=Johnny Winter - Good Morning Little School Girl
TTITLE9=Willie Dixon - Walking The Blues
TTITLE10=Jimmy Reed - Take Out Some Insurance
TTITLE11=Jerry Lee Lewis - Whole Lotta Shakin' Goin' On
TTITLE12=Elmore James - The Sky Is Crying
TTITLE13=Fats Domino - Blue Monday
TTITLE14=Muddy Waters - Mannish Boy
EXTD=YEAR: 1996 ID3G: 0
EXTT0=
EXTT1=
EXTT2=
EXTT3=
EXTT4=
EXTT5=
EXTT6=
EXTT7=
EXTT8=
EXTT9=
EXTT10=
EXTT11=
EXTT12=
EXTT13=
EXTT14=
PLAYORDER=
